HIERARCHY
ROOT hips
{
  OFFSET 0 10.680822821525009 1.3929502295107734
  CHANNELS 6 Xposition Yposition Zposition Yrotation Xrotation Zrotation
  JOINT spine
  {
    OFFSET -7.042017322922631e-31 0.6058489940359625 0
    CHANNELS 3 Yrotation Xrotation Zrotation
    JOINT chest
    {
      OFFSET 0 1.2699794144455032 0
      CHANNELS 3 Yrotation Xrotation Zrotation
      JOINT upperChest
      {
        OFFSET 0 1.217799211677689 0
        CHANNELS 3 Yrotation Xrotation Zrotation
        JOINT neck
        {
          OFFSET 0 1.5248826104153006 0
          CHANNELS 3 Yrotation Xrotation Zrotation
          JOINT head
          {
            OFFSET 0 0.8197772727844447 0
            CHANNELS 3 Yrotation Xrotation Zrotation
            JOINT leftEye
            {
              OFFSET 0.2793952361220866 0.6769952096623495 0.1830357412467788
              CHANNELS 3 Yrotation Xrotation Zrotation
              End Site
              {
                OFFSET 0.2793952361220866 0.6769952096623495 0.1830357412467788
              }
            }
            JOINT rightEye
            {
              OFFSET -0.27939522230689573 0.676995205357064 0.18303631459760622
              CHANNELS 3 Yrotation Xrotation Zrotation
              End Site
              {
                OFFSET -0.27939522230689573 0.676995205357064 0.18303631459760622
              }
            }
          }
        }
        JOINT leftShoulder
        {
          OFFSET 0.41486978509200423 1.1670505408695453 0
          CHANNELS 3 Yrotation Xrotation Zrotation
          JOINT leftUpperArm
          {
            OFFSET 0.9737926108153417 0 0
            CHANNELS 3 Yrotation Xrotation Zrotation
            JOINT leftLowerArm
            {
              OFFSET 2.5269332222665284 0 0
              CHANNELS 3 Yrotation Xrotation Zrotation
              JOINT leftHand
              {
                OFFSET 2.4263782738425914 0 0
                CHANNELS 3 Yrotation Xrotation Zrotation
                JOINT leftIndexProximal
                {
                  OFFSET 0.724320348022514 0.08170607082582437 0.20360061616140124
                  CHANNELS 3 Yrotation Xrotation Zrotation
                  JOINT leftIndexIntermediate
                  {
                    OFFSET 0.36548960630744587 -0.010566596513783999 -0.01414783573280308
                    CHANNELS 3 Yrotation Xrotation Zrotation
                    JOINT leftIndexDistal
                    {
                      OFFSET 0.22502819650693362 -0.007863819831430696 -0.007567681939621526
                      CHANNELS 3 Yrotation Xrotation Zrotation
                      End Site
                      {
                        OFFSET 0.22502819650693362 -0.007863819831430696 -0.007567681939621526
                      }
                    }
                  }
                }
                JOINT leftLittleProximal
                {
                  OFFSET 0.6720322998298205 0.08170601055037707 -0.3230036039466837
                  CHANNELS 3 Yrotation Xrotation Zrotation
                  JOINT leftLittleIntermediate
                  {
                    OFFSET 0.34583592281688713 5.476543019078406e-8 1.3869203337180114e-7
                    CHANNELS 3 Yrotation Xrotation Zrotation
                    JOINT leftLittleDistal
                    {
                      OFFSET 0.19925728062053938 0.003098047439490381 0.0038303983709246925
                      CHANNELS 3 Yrotation Xrotation Zrotation
                      End Site
                      {
                        OFFSET 0.19925728062053938 0.003098047439490381 0.0038303983709246925
                      }
                    }
                  }
                }
                JOINT leftMiddleProximal
                {
                  OFFSET 0.7300436596551069 0.0817073395107144 0.022661722987926763
                  CHANNELS 3 Yrotation Xrotation Zrotation
                  JOINT leftMiddleIntermediate
                  {
                    OFFSET 0.40758254347686607 -0.0000012383587111308714 2.408460318820138e-7
                    CHANNELS 3 Yrotation Xrotation Zrotation
                    JOINT leftMiddleDistal
                    {
                      OFFSET 0.2514490105498507 0.0000013869132886590307 9.738618134136345e-8
                      CHANNELS 3 Yrotation Xrotation Zrotation
                      End Site
                      {
                        OFFSET 0.2514490105498507 0.0000013869132886590307 9.738618134136345e-8
                      }
                    }
                  }
                }
                JOINT leftRingProximal
                {
                  OFFSET 0.7217261161191838 0.08170601902187746 -0.15043395722184966
                  CHANNELS 3 Yrotation Xrotation Zrotation
                  JOINT leftRingIntermediate
                  {
                    OFFSET 0.37808807487521556 0.0000013754022405443322 2.2046919317952884e-7
                    CHANNELS 3 Yrotation Xrotation Zrotation
                    JOINT leftRingDistal
                    {
                      OFFSET 0.21812105442344254 -0.002713483731960231 -0.004991354517454624
                      CHANNELS 3 Yrotation Xrotation Zrotation
                      End Site
                      {
                        OFFSET 0.21812105442344254 -0.002713483731960231 -0.004991354517454624
                      }
                    }
                  }
                }
                JOINT leftThumbProximal
                {
                  OFFSET 0.10793587079521427 -0.1652791240518252 -0.07775251827190094
                  CHANNELS 3 Yrotation Xrotation Zrotation
                  JOINT leftThumbIntermediate
                  {
                    OFFSET 0.40355819082296684 -0.017484006740276614 0.3177776014416309
                    CHANNELS 3 Yrotation Xrotation Zrotation
                    JOINT leftThumbDistal
                    {
                      OFFSET 0.2318764658022603 -0.018510186824293617 0.21396001800186287
                      CHANNELS 3 Yrotation Xrotation Zrotation
                      End Site
                      {
                        OFFSET 0.2318764658022603 -0.018510186824293617 0.21396001800186287
                      }
                    }
                  }
                }
              }
            }
          }
        }
        JOINT rightShoulder
        {
          OFFSET -0.4148697850920044 1.1670505408695453 0
          CHANNELS 3 Yrotation Xrotation Zrotation
          JOINT rightUpperArm
          {
            OFFSET -0.9737926108153414 0 0
            CHANNELS 3 Yrotation Xrotation Zrotation
            JOINT rightLowerArm
            {
              OFFSET -2.5269332222665293 0 0
              CHANNELS 3 Yrotation Xrotation Zrotation
              JOINT rightHand
              {
                OFFSET -2.42637827384259 0 0
                CHANNELS 3 Yrotation Xrotation Zrotation
                JOINT rightIndexProximal
                {
                  OFFSET -0.724320348022514 0.08170607082582437 0.20360061616140124
                  CHANNELS 3 Yrotation Xrotation Zrotation
                  JOINT rightIndexIntermediate
                  {
                    OFFSET -0.36548960630744587 -0.010566596513783999 -0.01414783573280308
                    CHANNELS 3 Yrotation Xrotation Zrotation
                    JOINT rightIndexDistal
                    {
                      OFFSET -0.22502819650693362 -0.007863819831430696 -0.007567681939621526
                      CHANNELS 3 Yrotation Xrotation Zrotation
                      End Site
                      {
                        OFFSET -0.22502819650693362 -0.007863819831430696 -0.007567681939621526
                      }
                    }
                  }
                }
                JOINT rightLittleProximal
                {
                  OFFSET -0.6720322998298205 0.08170601055037707 -0.3230036039466837
                  CHANNELS 3 Yrotation Xrotation Zrotation
                  JOINT rightLittleIntermediate
                  {
                    OFFSET -0.34583592281688713 5.476543019078406e-8 1.3869203337180114e-7
                    CHANNELS 3 Yrotation Xrotation Zrotation
                    JOINT rightLittleDistal
                    {
                      OFFSET -0.19925728062053938 0.003098047439490381 0.0038303983709246925
                      CHANNELS 3 Yrotation Xrotation Zrotation
                      End Site
                      {
                        OFFSET -0.19925728062053938 0.003098047439490381 0.0038303983709246925
                      }
                    }
                  }
                }
                JOINT rightMiddleProximal
                {
                  OFFSET -0.7300436596551069 0.0817073395107144 0.022661722987926763
                  CHANNELS 3 Yrotation Xrotation Zrotation
                  JOINT rightMiddleIntermediate
                  {
                    OFFSET -0.40758254347686607 -0.0000012383587111308714 2.408460318820138e-7
                    CHANNELS 3 Yrotation Xrotation Zrotation
                    JOINT rightMiddleDistal
                    {
                      OFFSET -0.2514490105498507 0.0000013869132886590307 9.738618134136345e-8
                      CHANNELS 3 Yrotation Xrotation Zrotation
                      End Site
                      {
                        OFFSET -0.2514490105498507 0.0000013869132886590307 9.738618134136345e-8
                      }
                    }
                  }
                }
                JOINT rightRingProximal
                {
                  OFFSET -0.7217261161191838 0.08170601902187746 -0.15043395722184966
                  CHANNELS 3 Yrotation Xrotation Zrotation
                  JOINT rightRingIntermediate
                  {
                    OFFSET -0.37808807487521556 0.0000013754022405443322 2.2046919317952884e-7
                    CHANNELS 3 Yrotation Xrotation Zrotation
                    JOINT rightRingDistal
                    {
                      OFFSET -0.21812105442344254 -0.002713483731960231 -0.004991354517454624
                      CHANNELS 3 Yrotation Xrotation Zrotation
                      End Site
                      {
                        OFFSET -0.21812105442344254 -0.002713483731960231 -0.004991354517454624
                      }
                    }
                  }
                }
                JOINT rightThumbProximal
                {
                  OFFSET -0.10793587079521427 -0.1652791240518252 -0.07775251827190094
                  CHANNELS 3 Yrotation Xrotation Zrotation
                  JOINT rightThumbIntermediate
                  {
                    OFFSET -0.40355819082296684 -0.017484006740276614 0.3177776014416309
                    CHANNELS 3 Yrotation Xrotation Zrotation
                    JOINT rightThumbDistal
                    {
                      OFFSET -0.2318764658022603 -0.018510186824293617 0.21396001800186287
                      CHANNELS 3 Yrotation Xrotation Zrotation
                      End Site
                      {
                        OFFSET -0.2318764658022603 -0.018510186824293617 0.21396001800186287
                      }
                    }
                  }
                }
              }
            }
          }
        }
      }
    }
  }
  JOINT leftUpperLeg
  {
    OFFSET 0.8486251390888677 -0.4421577294694363 0
    CHANNELS 3 Yrotation Xrotation Zrotation
    JOINT leftLowerLeg
    {
      OFFSET 0 -4.10147812638609 0
      CHANNELS 3 Yrotation Xrotation Zrotation
      JOINT leftFoot
      {
        OFFSET -0.0002543926476658853 -4.77292286812444 0.007402811231737388
        CHANNELS 3 Yrotation Xrotation Zrotation
        JOINT leftToes
        {
          OFFSET 0 -0.7027875951174846 1.2062924140498823
          CHANNELS 3 Yrotation Xrotation Zrotation
          End Site
          {
            OFFSET 0 -0.7027875951174846 1.2062924140498823
          }
        }
      }
    }
  }
  JOINT rightUpperLeg
  {
    OFFSET -0.8486251390888677 -0.4421577294694363 0
    CHANNELS 3 Yrotation Xrotation Zrotation
    JOINT rightLowerLeg
    {
      OFFSET 0 -4.10147812638609 0
      CHANNELS 3 Yrotation Xrotation Zrotation
      JOINT rightFoot
      {
        OFFSET 0.0002543926476658853 -4.77292286812444 0.007402811231737388
        CHANNELS 3 Yrotation Xrotation Zrotation
        JOINT rightToes
        {
          OFFSET 0 -0.7027875951174846 1.2062924140498823
          CHANNELS 3 Yrotation Xrotation Zrotation
          End Site
          {
            OFFSET 0 -0.7027875951174846 1.2062924140498823
          }
        }
      }
    }
  }
}
MOTION
Frames: 4
Frame Time: 0.03333333333333333
-0.01482993271201849 -0.0916886052164152 0.008956484496593475 5.277778909674231 -3.7392141276188284 3.35289223618986 -1.5820917222762767 3.294933466800411 -2.814874574925859 -0.7510475394629963 2.2668075199196642 -3.1241024032646223 0 0 0 0.07341836116363795 5.626288196756526 -0.44947322456551064 -1.386569336667681 -7.5608598126224535 0.28106111585729615 0 0 0 0 0 0 -15.513043638600978 1.169232379447705 -13.15143783779291 -29.050024542756535 10.590621764881263 -57.821645122213816 -6.622710466613242 -0.9707438555280443 0.1417793329430632 2.748518265846707 -20.877824941880554 -6.535417914015708 -1.0148891447483863 -0.5824274648390758 -7.56135006513366 1.543450118179201 0.23635168258089553 -17.3898225064345 0.709808117795798 0.05037873809263079 -8.047139858417374 5.3900424517872105 1.0262327360792032 -27.11311753395008 1.5006381117901848 0.2978832072653156 -17.418524616982985 1.441278270851403 0.269053239285204 -16.518984224233453 2.5278711759378267 -0.2868026018684311 -15.729814810148886 1.536756833072124 0.2346897981378862 -17.419520317991086 1.6224442106611776 0.2631733701632321 -18.42722495536055 3.431111265546481 -0.029470056427673887 -21.1687016358167 1.8304767148991923 0.338313561845611 -20.924773921085826 1.5734355895220025 0.2477375227798452 -17.878975117464716 2.009570198070848 0.6876351831273833 4.716305350168627 26.493931798953 13.311601283216614 21.11022202179929 -1.4277054772089797 -17.900879742837404 11.874786740738942 17.58050018362687 1.0210546263022657 10.73340660784987 20.780646651366595 2.729114211829509 64.0615285564551 1.4436228754734552 -0.21293299823037884 -0.02132381988575482 -2.691485032923632 -31.696919795189903 7.1182251772574965 1.2835593934179783 -0.5528026799343544 6.789241175559283 -1.1458197268153223 0.17681522864175628 17.41883270163312 -0.5602745883157911 0.0387118943250746 8.060670097053903 -4.480030499671527 0.7181639974175973 26.473437881960095 -1.086823274423031 0.13363642749493213 17.44856385260861 -1.178577620203529 0.13417231866379545 16.548757213156282 -2.131847818721651 -0.32985006653145 15.029153160164293 -1.081103671468176 0.16860815877113583 17.44885716722035 -1.2794785259464796 0.20096014544457982 18.46000430538936 -2.8471328708595647 -0.14410811210169683 20.486135898316135 -1.4285182668070309 0.2623330612962608 20.959658106619028 -1.2184498839548907 0.1963956039643759 17.908069071929916 -0.12906355522690258 -0.26861642253510915 -4.13909500191477 -26.236708785742852 12.725028886083553 -22.59473145352062 -9.697189960115113 -11.124434228331262 -8.589146494385176 10.338621187982696 0.6189301624608131 -3.525289514551847 9.88745759481013 7.285485797317336 4.41491691046582 1.6120099768591936 -3.6728040590620923 -3.3319648112078917 0.000004387254903344654 -7.282874372540795 -0.000002628157771224232 -15.130984667892497 -10.41132217645238 -7.353911090269104 -2.128043135664274 12.153199307632994 -4.595323941006826 -0.42156781140741245 1.269171827192703 7.107977482505535 0.000008241024695592872 -4.93567377279928 -0.000004334478021966485
-0.014934527687728405 -0.09190795030918864 0.00901940930634737 5.27263697719739 -3.739219261188975 3.3522938379994054 -1.5820542028189293 3.294961260389802 -2.814213654946609 -0.7510468986863431 2.266803674929466 -3.124104749488809 0 0 0 0.07341895818355867 5.617261373611422 -0.4494830075795413 -1.394522571546363 -7.586977505010773 0.2829173545645426 0 0 0 0 0 0 -15.523006254854515 1.1669944938166066 -13.15001759571664 -29.05007538431252 10.609717857139009 -57.82124687974056 -6.642102978725951 -0.9735807133716511 0.1423466590201351 2.7365302318308697 -20.89608499401133 -6.526979412150261 -1.0148891447483863 -0.5824274648390758 -7.56135006513366 1.543450118179201 0.23635168258089553 -17.3898225064345 0.709808117795798 0.05037873809263079 -8.047139858417374 5.3900424517872105 1.0262327360792032 -27.11311753395008 1.5006381117901848 0.2978832072653156 -17.418524616982985 1.441278270851403 0.269053239285204 -16.518984224233453 2.5278711759378267 -0.2868026018684311 -15.729814810148886 1.536756833072124 0.2346897981378862 -17.419520317991086 1.6224442106611776 0.2631733701632321 -18.42722495536055 3.431111265546481 -0.029470056427673887 -21.1687016358167 1.8304767148991923 0.338313561845611 -20.924773921085826 1.5734355895220025 0.2477375227798452 -17.878975117464716 2.009570198070848 0.6876351831273833 4.716305350168627 26.493931798953 13.311601283216614 21.11022202179929 -1.4277054772089797 -17.900879742837404 11.874786740738942 17.58005446673947 1.0254677389996412 10.719470420680572 20.794488291063693 2.726984834997606 64.07919777236917 1.4436226620963168 -0.21293860115862576 -0.02132532567261472 -2.6997618734052597 -31.703538778922173 7.145484920771674 1.2835525646249788 -0.5528236517256839 6.7892259348581305 -1.1458271958766282 0.17680342249684042 17.41881864530185 -0.5602708532338087 0.038714622399301374 8.060686637359025 -4.480042842534249 0.7181368879748639 26.473418028270718 -1.0868210336642736 0.1336467261675549 17.448568739553174 -1.1785726053308416 0.13417700109147576 16.54875230269243 -2.1318580570840497 -0.32988493842674793 15.029182967159906 -1.0811013239984526 0.16862431383930565 17.44886959412637 -1.2794787393379832 0.20095087393936387 18.45997352645653 -2.847139692639366 -0.14415025396860165 20.48615428437631 -1.4285210407380589 0.26235355207856503 20.959658106619028 -1.2184513777297052 0.19639627097895554 17.908074996529926 -0.12905488401497964 -0.26863936795403887 -4.1390500487183886 -26.236708808174427 12.725000877390459 -22.594797706968723 -9.697180210698034 -11.12440029354234 -8.589119124050464 10.338456329508041 0.6101459805534097 -3.5270576176324475 9.896514860352225 7.31001534215983 4.420203234997035 1.6133089393028965 -3.6893275061346693 -3.333427683632941 0.000002962593906584729 -7.287357012167632 -0.000003470838472061672 -15.130731084578903 -10.412995811557565 -7.353636238645303 -2.128120278677586 12.165809863020998 -4.595689791661186 -0.4216807796307185 1.2525101355845238 7.103209789644525 -0.000004135111745084476 -4.93566391785952 -0.000005008748456090522
-0.015179811045527458 -0.09242674913731364 0.00921643991023302 5.258564012732514 -3.747939529105704 3.350553186541785 -1.5819337742103226 3.295017275164625 -2.8122985867604684 -0.7510513841229115 2.2668045293717314 -3.1241015500921883 0 0 0 0.07342236958555722 5.604056829670235 -0.4495024008770719 -1.4121763522020918 -7.624749505675592 0.2890780029575161 0 0 0 0 0 0 -15.559180854427998 1.1717885775384045 -13.096950065535436 -29.059856952839773 10.654249350599915 -57.86123515382815 -6.705568918442352 -0.9827526461571737 0.14426289498490497 2.7077339166069025 -20.949865546729548 -6.508841626944303 -1.0148891447483863 -0.5824274648390758 -7.56135006513366 1.543450118179201 0.23635168258089553 -17.3898225064345 0.709808117795798 0.05037873809263079 -8.047139858417374 5.3900424517872105 1.0262327360792032 -27.11311753395008 1.5006381117901848 0.2978832072653156 -17.418524616982985 1.441278270851403 0.269053239285204 -16.518984224233453 2.5278711759378267 -0.2868026018684311 -15.729814810148886 1.536756833072124 0.2346897981378862 -17.419520317991086 1.6224442106611776 0.2631733701632321 -18.42722495536055 3.431111265546481 -0.029470056427673887 -21.1687016358167 1.8304767148991923 0.338313561845611 -20.924773921085826 1.5734355895220025 0.2477375227798452 -17.878975117464716 2.009570198070848 0.6876351831273833 4.716305350168627 26.493931798953 13.311601283216614 21.11022202179929 -1.4277054772089797 -17.900879742837404 11.874786740738942 17.582263465480256 1.0398890375894425 10.63785441088848 20.821548678306463 2.7038839556617438 64.1607485429113 1.4436285299676126 -0.21294316354305687 -0.021327149959242286 -2.7170121641370697 -31.720395437744305 7.215218268353206 1.2829520112637811 -0.5532614979203614 6.7968099266928705 -1.1460498421913283 0.17688587874753398 17.42233662857877 -0.5604997938000875 0.03873314528959156 8.064103756310805 -4.480465008861016 0.7184495004167794 26.480925186154607 -1.0868257285873806 0.13365026133367644 17.44852717691028 -1.178575913012829 0.13417862860195176 16.54878207410966 -2.132226079797405 -0.32986404730659685 15.034032525260008 -1.0810976960906908 0.16863159762727095 17.448846369295804 -1.27947799246772 0.20094144235061 18.459971906760952 -2.8473593512120003 -0.14408289901897053 20.489164888460788 -1.4285144259794422 0.26233279448919977 20.9596397175642 -1.2184556456577376 0.19639324273276404 17.90810309400964 -0.13257161779041518 -0.26552084578846785 -4.136468064213266 -26.23908747067947 12.72478993701991 -22.59554803665886 -9.697190231547816 -11.124408124647125 -8.589135130407469 10.338315990528475 0.589440781660865 -3.529323902301883 9.896891376096395 7.374689673171485 4.4314028027165575 1.6361112270966007 -3.7251880426886443 -3.3366561166639706 0.000005925416295971251 -7.2965754846364135 -0.0000026537362063575495 -15.12994165362452 -10.418464702611468 -7.3526643059296575 -2.1266521735361295 12.197472952024278 -4.59631303217616 -0.42203981867312995 1.2130769419990794 7.091658756170375 -0.000013682768604663612 -4.93567034499413 0.0000011140009664805815
-0.015469579957425594 -0.09294268694248942 0.009659175761044025 5.244696818259526 -3.7632725070548734 3.3490176497852113 -1.5817818349973403 3.2950651656616303 -2.810588973957132 -0.7510017027901982 2.263317127463587 -3.124065545352583 0 0 0 0.06618129140128345 5.599340258206306 -0.44861256347279965 -1.465476030132585 -7.609911462354192 0.3112623684578158 0 0 0 0 0 0 -15.612969006604274 1.1879561817476092 -12.985133672793008 -29.0812587978188 10.718642728221493 -57.9429300879262 -6.810589323055665 -0.9979849628747138 0.14745494269098805 2.6739516135042916 -21.040384989254235 -6.478195678441804 -1.0148891447483863 -0.5824274648390758 -7.56135006513366 1.543450118179201 0.23635168258089553 -17.3898225064345 0.709808117795798 0.05037873809263079 -8.047139858417374 5.3900424517872105 1.0262327360792032 -27.11311753395008 1.5006381117901848 0.2978832072653156 -17.418524616982985 1.441278270851403 0.269053239285204 -16.518984224233453 2.5278711759378267 -0.2868026018684311 -15.729814810148886 1.536756833072124 0.2346897981378862 -17.419520317991086 1.6224442106611776 0.2631733701632321 -18.42722495536055 3.431111265546481 -0.029470056427673887 -21.1687016358167 1.8304767148991923 0.338313561845611 -20.924773921085826 1.5734355895220025 0.2477375227798452 -17.878975117464716 2.009570198070848 0.6876351831273833 4.716305350168627 26.493931798953 13.311601283216614 21.11022202179929 -1.4277054772089797 -17.900879742837404 11.874786740738942 17.592239688809975 1.0614028413532182 10.492025144583854 20.836265310555294 2.653516036950182 64.29974884974878 1.4422976898997737 -0.2127287181359478 -0.021267452097001427 -2.7347658579749496 -31.72698799180288 7.269594698240953 1.2802687632693626 -0.555477944692821 6.831609884926613 -1.1469299323458284 0.17716054170852236 17.435803501324774 -0.5614143687098241 0.03886914545952906 8.077377518029815 -4.48241080391104 0.7197317026109353 26.515138883381198 -1.0868247682622005 0.13365425006828208 17.448556312665303 -1.1785807144866676 0.13417665424498088 16.548766369990684 -2.133922302715416 -0.3299402478676663 15.056667595173002 -1.0811022843269762 0.16861230759541268 17.448821515483296 -1.2794771389017046 0.2009590648806623 18.45997514615208 -2.848369004436033 -0.1439575673198006 20.503261393775038 -1.4285165597725487 0.2623352757948676 20.959642533771433 -1.2184602336803574 0.19640328797233536 17.9080814958418 -0.14759248986469733 -0.25248572343294573 -4.125373448355787 -26.25056820151081 12.72556717875471 -22.599883394640482 -9.697189102424824 -11.124423786857326 -8.589133069118917 10.336612542231777 0.5783174010939242 -3.5298544600191675 9.873008463416644 7.436791258755952 4.446096108025698 1.681815210121963 -3.759397846942068 -3.347723204886006 -0.00001251577215595112 -7.304870550708028 -0.0000015579366624380324 -15.12917268394907 -10.416556656389156 -7.353219362323084 -2.122322000705065 12.228054818517165 -4.596269326487477 -0.4222243968249477 1.170345612129433 7.081719344303265 5.986660549060097e-7 -4.935676772128802 -0.0000016598135194386665
